<?xml version="1.0" standalone="no"?>
<!DOCTYPE svg PUBLIC "-//W3C//DTD SVG 20010904//EN"
 "http://www.w3.org/TR/2001/REC-SVG-20010904/DTD/svg10.dtd">
<svg version="1.0" xmlns="http://www.w3.org/2000/svg"
 width="248.000000pt" height="248.000000pt" viewBox="0 0 248.000000 248.000000"
 preserveAspectRatio="xMidYMid meet">
<metadata>
Created by potrace 1.14, written by Peter Selinger 2001-2017
</metadata>
<g transform="translate(0.000000,248.000000) scale(0.100000,-0.100000)"
fill="#000000" stroke="none">
<path d="M1313 2234 c6 -33 5 -34 -16 -19 -12 8 -25 15 -28 15 -13 0 -29 -62
-20 -74 10 -12 -4 -31 -55 -79 -17 -15 -31 -22 -31 -15 0 7 -6 33 -12 57 -7
23 -10 46 -7 49 7 6 -13 32 -24 32 -5 0 -12 -15 -15 -32 -4 -18 -11 -38 -16
-44 -6 -7 -3 -22 6 -40 18 -34 20 -91 4 -96 -7 -2 -35 4 -63 13 -68 23 -104
30 -111 19 -3 -4 10 -11 28 -14 18 -3 51 -15 72 -26 22 -11 43 -20 48 -20 20
0 68 -44 100 -91 l34 -51 -14 -61 c-8 -33 -12 -69 -10 -78 4 -13 0 -16 -17
-13 -40 8 -131 7 -176 -1 -25 -5 -48 -8 -51 -7 -3 0 -24 2 -46 3 -24 2 -39 7
-37 13 5 14 -6 30 -31 44 -18 10 -15 11 19 12 35 0 38 2 32 23 -3 12 -6 28 -6
35 0 19 -32 14 -58 -10 l-25 -23 12 22 c17 34 14 63 -8 63 -11 0 -27 3 -37 7
-15 5 -16 2 -11 -30 5 -35 -4 -49 -18 -27 -9 14 -45 12 -45 -2 0 -7 -3 -23 -6
-35 -6 -21 -3 -23 32 -23 34 -1 37 -2 19 -12 -19 -11 -35 -28 -35 -38 1 -3 12
-14 27 -24 25 -19 26 -19 39 -1 13 18 15 18 37 -3 13 -12 36 -22 53 -22 16 0
43 -4 61 -9 17 -5 35 -5 39 -1 16 14 142 22 164 10 12 -6 19 -14 16 -17 -2 -3
0 -17 5 -31 9 -25 9 -25 -8 -10 -33 28 -47 27 -59 -6 -13 -40 -10 -46 27 -46
l30 0 -27 -23 -27 -24 33 -23 c19 -14 35 -19 37 -13 2 5 10 19 18 29 12 16 14
17 15 3 0 -9 7 -23 16 -30 13 -11 17 -10 25 4 6 9 17 17 24 17 23 0 18 16 -11
39 l-27 21 31 0 c34 0 48 13 35 33 -4 6 -8 19 -10 27 -3 25 46 -43 53 -72 4
-23 10 -27 28 -22 36 9 101 -28 157 -89 45 -50 52 -64 53 -100 1 -45 3 -44
-69 -33 -11 2 -33 -1 -50 -6 -58 -16 -110 -18 -162 -4 -29 8 -53 11 -53 6 0
-10 96 -61 102 -54 10 9 128 16 172 10 41 -7 69 -26 115 -81 8 -10 22 -15 34
-11 25 6 57 -10 57 -29 0 -8 15 -17 35 -21 19 -3 38 -10 41 -15 3 -5 -12 -27
-34 -48 -48 -48 -115 -65 -137 -35 -7 11 -11 22 -8 26 9 17 -29 20 -46 4 -24
-22 -34 -20 -21 3 20 38 13 50 -27 48 -39 -2 -44 -11 -27 -51 7 -19 7 -19 -16
-3 -32 22 -50 21 -50 -2 0 -11 -5 -23 -10 -26 -20 -12 9 -32 38 -27 l27 5 -30
-32 c-29 -31 -29 -32 -7 -38 12 -3 22 -9 22 -14 0 -23 32 -5 42 24 l12 32 8
-33 c10 -37 23 -40 58 -12 l25 20 -30 25 c-27 24 -28 25 -3 10 23 -14 35 -15
89 -4 34 7 69 19 78 28 9 9 38 27 63 40 46 23 48 23 75 6 15 -9 56 -45 90 -79
34 -33 81 -76 103 -95 23 -19 48 -48 57 -65 9 -17 26 -44 39 -59 13 -16 24
-35 24 -43 0 -8 16 -38 35 -67 29 -43 37 -68 44 -128 11 -90 21 -116 61 -163
40 -45 55 -45 70 -1 6 19 19 39 27 44 13 7 7 19 -35 75 -44 56 -82 141 -82
179 0 6 -11 25 -25 43 -14 18 -25 37 -25 42 0 5 -7 15 -15 22 -8 7 -17 26 -20
44 -5 25 -15 36 -44 48 -34 15 -39 21 -45 64 -10 76 -7 94 19 120 23 23 24 27
10 53 -17 34 -28 83 -27 129 0 40 30 100 54 108 25 8 32 40 14 66 -9 12 -16
30 -16 39 0 9 -7 19 -14 22 -8 3 -28 32 -43 64 -28 56 -28 59 -11 76 10 9 23
17 28 17 19 0 10 24 -17 46 l-27 21 32 -5 c38 -5 48 11 33 52 -11 26 -11 26
-42 10 -30 -15 -32 -15 -25 2 16 40 10 50 -29 51 -28 1 -35 -3 -35 -19 0 -10
5 -28 11 -40 10 -19 9 -18 -20 3 -34 25 -45 20 -55 -23 -5 -23 -3 -28 18 -34
14 -3 31 -2 38 2 7 4 1 -4 -14 -19 -31 -29 -36 -47 -13 -47 7 0 19 -8 24 -17
10 -17 12 -17 26 1 14 19 15 19 15 -8 0 -15 4 -35 9 -44 5 -9 11 -32 14 -51 4
-20 16 -43 32 -55 43 -35 41 -47 -35 -196 -16 -31 -16 -39 -4 -75 15 -41 17
-145 2 -145 -4 0 -8 -7 -8 -16 0 -41 -96 26 -120 84 -5 12 -17 22 -25 22 -9 0
-46 18 -83 40 -36 22 -82 45 -102 50 -19 5 -46 17 -59 26 -29 21 -60 89 -61
133 0 22 -8 44 -22 58 -25 27 -19 40 11 21 24 -15 41 -3 44 30 2 26 17 18 17
-9 0 -22 32 -39 38 -21 2 7 10 12 18 12 18 0 18 24 -1 40 -8 7 -12 17 -9 22 3
5 8 7 11 4 3 -3 15 -1 25 5 15 8 17 14 9 22 -6 6 -11 19 -11 29 0 22 -18 23
-47 3 -21 -15 -21 -15 -12 17 5 18 9 33 9 34 0 1 -18 2 -40 2 -36 1 -40 -2
-38 -21 2 -12 7 -28 11 -34 12 -18 -8 -16 -23 2 -16 19 -42 16 -46 -5 -1 -8
-5 -23 -9 -32 -7 -18 10 -23 55 -19 9 1 5 -6 -10 -18 -17 -14 -26 -16 -28 -8
-1 7 -25 23 -51 36 -27 13 -58 31 -69 41 -11 11 -35 25 -54 33 -18 8 -47 30
-63 51 -17 20 -46 54 -67 76 -36 39 -38 52 -21 100 10 27 2 62 -24 101 -13 21
-27 56 -30 78 -5 35 -2 44 25 71 17 16 38 30 46 30 9 0 16 7 16 15 0 19 7 19
28 -1 14 -15 17 -15 29 2 7 10 13 27 14 38 0 16 3 14 11 -9 15 -40 27 -46 54
-27 30 21 30 36 2 55 l-23 16 22 0 c38 1 53 11 43 29 -5 10 -11 25 -14 35 -6
18 -8 18 -44 -3 -20 -12 -31 -16 -24 -9 6 7 12 25 12 39 0 23 -4 26 -36 27
-36 1 -36 1 -31 -33z m-78 -634 c3 -5 1 -10 -6 -10 -7 0 -21 -8 -32 -17 -11
-10 -18 -13 -15 -8 3 6 8 18 11 28 7 19 32 23 42 7z"/>
<path d="M180 1308 c0 -16 9 -48 20 -71 l20 -41 -32 31 c-60 56 -98 65 -98 22
0 -11 -7 -30 -15 -43 -22 -34 0 -49 65 -44 27 1 50 0 50 -4 0 -5 -5 -8 -12 -8
-19 0 -78 -50 -78 -66 0 -8 11 -19 25 -24 14 -5 28 -16 31 -24 3 -8 12 -17 20
-20 17 -7 53 62 55 104 1 21 2 19 10 -10 26 -94 47 -115 73 -74 9 13 25 24 36
24 33 0 24 36 -17 66 -21 16 -41 30 -45 33 -4 4 15 4 43 3 64 -5 86 10 64 44
-8 13 -15 32 -15 43 0 41 -37 34 -93 -18 l-29 -26 15 37 c9 20 17 49 19 65 3
28 2 28 -54 29 -58 2 -58 2 -58 -28z"/>
<path d="M706 1152 c-3 -2 -1 -15 4 -28 10 -24 9 -24 -20 -9 -18 9 -31 11 -31
5 -3 -20 -4 -25 -11 -36 -10 -16 1 -24 31 -24 l25 0 -23 -22 -23 -21 23 -18
c32 -25 36 -24 47 9 l10 27 11 -27 c10 -27 31 -39 31 -18 0 6 7 10 15 10 22 0
18 27 -7 44 -22 16 -22 16 10 16 35 0 37 5 22 45 -10 26 -11 27 -35 11 -24
-16 -24 -16 -19 13 6 28 4 30 -25 29 -17 -1 -33 -3 -35 -6z"/>
<path d="M483 1053 c1 -10 6 -24 11 -31 6 -10 0 -9 -22 2 -19 10 -33 12 -37 6
-3 -6 -3 -10 1 -10 3 0 1 -7 -6 -15 -16 -19 -4 -35 27 -35 l25 0 -22 -18 -23
-19 21 -21 c28 -28 30 -28 47 11 11 25 14 27 15 11 0 -36 22 -45 50 -23 l25
19 -24 20 -23 20 25 0 c30 0 43 16 28 34 -6 7 -8 15 -5 18 2 3 -2 8 -10 11 -8
3 -20 -1 -26 -9 -20 -23 -30 -16 -20 12 14 35 14 34 -25 34 -28 0 -34 -4 -32
-17z"/>
</g>
</svg>
